<svg width="40" height="40" viewBox="0 0 40 40" fill="none" xmlns="http://www.w3.org/2000/svg">
<g clip-path="url(#clip0_3_107)">
<g clip-path="url(#clip1_3_107)">
<g clip-path="url(#clip2_3_107)">
<path d="M20 13.7144C21.9286 13.7144 23.4921 12.1509 23.4921 10.2223C23.4921 8.29367 21.9286 6.73022 20 6.73022C18.0714 6.73022 16.5079 8.29367 16.5079 10.2223C16.5079 12.1509 18.0714 13.7144 20 13.7144Z" fill="black"/>
<path d="M30.2223 14.1587C23.4286 15.4286 16.508 15.4286 9.77781 14.1587C9.20639 14.0317 8.69845 14.4127 8.57147 14.9841C8.44448 15.5555 8.82543 16.0635 9.39686 16.1905C11.6826 16.6349 14.0318 16.8889 16.3175 17.0159C17.2064 17.0794 17.9048 17.9048 17.8413 18.7936V18.8571L17.6508 20.6349C17.3334 23.3651 16.6984 26.0952 15.7461 28.6984L14.4762 32.0635C14.2858 32.6349 14.5397 33.2063 15.1111 33.3968C15.6826 33.5873 16.254 33.3333 16.4445 32.7619L16.7619 32.127C17.7778 29.9682 18.7302 27.746 19.6191 25.5238C19.6826 25.2698 20 25.1428 20.254 25.2698C20.381 25.3333 20.4445 25.3968 20.508 25.5238C21.3969 27.746 22.2858 29.9682 23.3651 32.127L23.6826 32.8254C23.8731 33.2063 24.1905 33.4603 24.635 33.4603C24.7619 33.4603 24.8889 33.4603 25.0159 33.3968C25.5873 33.2063 25.8413 32.6349 25.6508 32.0635L24.381 28.6984C23.4286 26.0952 22.7937 23.4286 22.4762 20.6349L22.2857 18.8571C22.1588 17.9682 22.8572 17.1428 23.7461 17.0159H23.8096C26.0953 16.8889 28.381 16.5714 30.6667 16.1905C31.1746 16.127 31.5556 15.6825 31.5556 15.1111C31.5556 14.5397 31.1111 14.0317 30.5397 14.0317C30.3492 14.0952 30.2857 14.1587 30.2223 14.1587Z" fill="black"/>
<path opacity="0.85" d="M20 0C8.95238 0 0 8.95238 0 20C0 31.0476 8.95238 40 20 40C31.0476 40 40 31.0476 40 20C40 8.95238 31.0476 0 20 0ZM20 38.0952C10.0317 38.0952 1.90476 29.9683 1.90476 20C1.90476 10.0317 10.0317 1.90476 20 1.90476C29.9683 1.90476 38.0952 10.0317 38.0952 20C38.0952 29.9683 29.9683 38.0952 20 38.0952Z" fill="black"/>
</g>
</g>
</g>
<defs>
<clipPath id="clip0_3_107">
<rect width="40" height="40" fill="white"/>
</clipPath>
<clipPath id="clip1_3_107">
<rect width="40" height="40" fill="white"/>
</clipPath>
<clipPath id="clip2_3_107">
<rect width="40" height="40" fill="white"/>
</clipPath>
</defs>
</svg>
