<svg width="46" height="46" viewBox="0 0 46 46" fill="none" xmlns="http://www.w3.org/2000/svg">
<rect width="46" height="46" rx="23" fill="white"/>
<g clip-path="url(#clip0_4_3)">
<g clip-path="url(#clip1_4_3)">
<g clip-path="url(#clip2_4_3)">
<path d="M22.9999 16.7144C24.9285 16.7144 26.4919 15.1509 26.4919 13.2223C26.4919 11.2937 24.9285 9.73022 22.9999 9.73022C21.0713 9.73022 19.5078 11.2937 19.5078 13.2223C19.5078 15.1509 21.0713 16.7144 22.9999 16.7144Z" fill="black"/>
<path d="M33.2221 17.1587C26.4285 18.4286 19.5079 18.4286 12.7777 17.1587C12.2063 17.0317 11.6983 17.4127 11.5713 17.9841C11.4444 18.5555 11.8253 19.0635 12.3967 19.1905C14.6825 19.6349 17.0317 19.8889 19.3174 20.0159C20.2063 20.0794 20.9047 20.9048 20.8412 21.7936V21.8571L20.6507 23.6349C20.3332 26.3651 19.6983 29.0952 18.7459 31.6984L17.4761 35.0635C17.2856 35.6349 17.5396 36.2063 18.111 36.3968C18.6825 36.5873 19.2539 36.3333 19.4444 35.7619L19.7618 35.127C20.7777 32.9682 21.7301 30.746 22.619 28.5238C22.6825 28.2698 22.9999 28.1428 23.2539 28.2698C23.3809 28.3333 23.4444 28.3968 23.5079 28.5238C24.3967 30.746 25.2856 32.9682 26.365 35.127L26.6825 35.8254C26.8729 36.2063 27.1904 36.4603 27.6348 36.4603C27.7618 36.4603 27.8888 36.4603 28.0158 36.3968C28.5872 36.2063 28.8412 35.6349 28.6507 35.0635L27.3809 31.6984C26.4285 29.0952 25.7936 26.4286 25.4761 23.6349L25.2856 21.8571C25.1586 20.9682 25.8571 20.1428 26.7459 20.0159H26.8094C29.0952 19.8889 31.3809 19.5714 33.6666 19.1905C34.1745 19.127 34.5555 18.6825 34.5555 18.1111C34.5555 17.5397 34.111 17.0317 33.5396 17.0317C33.3491 17.0952 33.2856 17.1587 33.2221 17.1587Z" fill="black"/>
<path opacity="0.85" d="M23 3C11.9524 3 3 11.9524 3 23C3 34.0476 11.9524 43 23 43C34.0476 43 43 34.0476 43 23C43 11.9524 34.0476 3 23 3ZM23 41.0952C13.0317 41.0952 4.90476 32.9683 4.90476 23C4.90476 13.0317 13.0317 4.90476 23 4.90476C32.9683 4.90476 41.0952 13.0317 41.0952 23C41.0952 32.9683 32.9683 41.0952 23 41.0952Z" fill="black"/>
</g>
</g>
</g>
<defs>
<clipPath id="clip0_4_3">
<rect width="40" height="40" fill="white" transform="translate(3 3)"/>
</clipPath>
<clipPath id="clip1_4_3">
<rect width="40" height="40" fill="white" transform="translate(3 3)"/>
</clipPath>
<clipPath id="clip2_4_3">
<rect width="40" height="40" fill="white" transform="translate(3 3)"/>
</clipPath>
</defs>
</svg>
